<?xml version="1.0" encoding="UTF-8"?>
<svg width="17px" height="15px" viewBox="0 0 17 15" version="1.1" xmlns="http://www.w3.org/2000/svg" xmlns:xlink="http://www.w3.org/1999/xlink">
    <!-- Generator: Sketch 47 (45396) - http://www.bohemiancoding.com/sketch -->
    <title>LinkedIn</title>
    <desc>Created with Sketch.</desc>
    <defs></defs>
    <g id="Symbols" stroke="none" stroke-width="1" fill="none" fill-rule="evenodd">
        <g id="Desktop/Navigation/Footer" transform="translate(-984.000000, -168.000000)" fill="#007EBB">
            <g id="Social-Icons-Copy" transform="translate(983.000000, 127.000000)">
                <path d="M17.5201465,56 L13.8689688,56 L13.8689688,50.7269002 C13.8689688,49.3466735 13.2978348,48.4044311 12.041923,48.4044311 C11.0812912,48.4044311 10.5470673,49.0402766 10.2984103,49.6530704 C10.205164,49.873023 10.2197337,50.1794199 10.2197337,50.4858167 L10.2197337,56 L6.60255204,56 C6.60255204,56 6.64917522,46.6592175 6.60255204,45.8101428 L10.2197337,45.8101428 L10.2197337,47.4093616 C10.4334233,46.7101236 11.5892896,45.7121726 13.4338191,45.7121726 C15.7222402,45.7121726 17.5201465,47.1778831 17.5201465,50.334059 L17.5201465,56 L17.5201465,56 Z M2.9445751,44.5355702 L2.92126351,44.5355702 C1.75568403,44.5355702 1,43.7566114 1,42.7692258 C1,41.7626305 1.7780243,41 2.96691538,41 C4.15483513,41 4.88526494,41.7607095 4.90857653,42.7663444 C4.90857653,43.7537299 4.15483513,44.5355702 2.9445751,44.5355702 L2.9445751,44.5355702 L2.9445751,44.5355702 Z M1.41669466,45.8101428 L4.63660798,45.8101428 L4.63660798,56 L1.41669466,56 L1.41669466,45.8101428 L1.41669466,45.8101428 Z" id="LinkedIn"></path>
            </g>
        </g>
    </g>
</svg>